<?xml version="1.0" encoding="utf-8"?>
<!-- Generator: Adobe Illustrator 28.0.0, SVG Export Plug-In . SVG Version: 6.00 Build 0)  -->
<svg version="1.1" id="Layer_1" xmlns="http://www.w3.org/2000/svg" xmlns:xlink="http://www.w3.org/1999/xlink" x="0px" y="0px"
	 viewBox="0 0 612 792" style="enable-background:new 0 0 612 792;" xml:space="preserve">
<style type="text/css">
	.st0{fill:#FFFFFF;}
</style>
<path class="st0" d="M254.78,206.8h73.87c17.22,0,32.86,7.04,44.19,18.37c11.33,11.33,18.37,26.98,18.37,44.19
	c0,17.21-7.04,32.86-18.37,44.19c-5.51,5.51-12.04,10-19.27,13.17l41.98,60.23h-24.01l-38.46-55.18c-1.46,0.1-2.94,0.16-4.43,0.16
	h-64.02v55.03h-19.72v-64.88c0-7.22,1.24-14.17,3.51-20.64c-27.89-12.13-34.3-29.38-34.33-29.43c-0.94-2.4-0.87-4.94,0-7.16
	c0.02-0.05,6.35-17.07,33.77-29.19c-1.92-5.99-2.96-12.38-2.96-18.99C244.92,211.21,249.34,206.8,254.78,206.8L254.78,206.8z
	 M257.84,284.1c1.68-2.19,3.51-4.27,5.46-6.22c3.2-3.2,6.75-6.06,10.57-8.51c-3.83-2.45-7.37-5.31-10.57-8.51
	c-2.37-2.38-4.56-4.94-6.53-7.67c-13,5.43-19.27,11.5-22.14,15.24C237.56,272.26,244.11,278.55,257.84,284.1L257.84,284.1z
	 M269.46,236.33c0.08,0.15,0.16,0.3,0.24,0.45c2.01,3.74,4.55,7.15,7.54,10.14c7.77,7.77,18.48,12.59,30.25,12.59h62.86
	c-1.87-7.84-5.91-14.86-11.44-20.4c-7.77-7.77-18.48-12.59-30.25-12.59h-62.86C266.61,229.96,267.85,233.25,269.46,236.33
	L269.46,236.33z M370.35,279.22h-62.86c-11.77,0-22.48,4.82-30.25,12.59c-5.53,5.53-9.57,12.56-11.44,20.4h62.86
	c11.77,0,22.48-4.82,30.25-12.59C364.44,294.08,368.48,287.06,370.35,279.22L370.35,279.22z"/>
<g>
	<path class="st0" d="M46.3,497.05l-9.29-13.42h-0.55h-9.7v13.42H15.61v-48.18h20.85c12.87,0,20.92,6.68,20.92,17.48
		c0,7.23-3.65,12.53-9.91,15.21l10.8,15.49H46.3z M35.84,457.96h-9.08v16.79h9.08c6.81,0,10.25-3.17,10.25-8.4
		C46.09,461.06,42.65,457.96,35.84,457.96z"/>
	<path class="st0" d="M66.19,448.87h11.15v48.18H66.19V448.87z"/>
	<path class="st0" d="M134.79,448.87l-20.85,48.18h-11.01l-20.78-48.18h12.04l14.66,34.41l14.86-34.41H134.79z"/>
	<path class="st0" d="M168.93,486.73h-22.37l-4.27,10.32h-11.42l21.47-48.18h11.01l21.54,48.18h-11.7L168.93,486.73z M165.42,478.26
		l-7.64-18.45l-7.64,18.45H165.42z"/>
	<path class="st0" d="M234.1,448.87v48.18h-9.15l-24.02-29.25v29.25h-11.01v-48.18h9.22l23.95,29.25v-29.25H234.1z"/>
	<path class="st0" d="M255.5,457.96h-15.41v-9.09h41.98v9.09h-15.41v39.09H255.5V457.96z"/>
	<path class="st0" d="M284.33,472.96c0-14.32,11.15-24.92,26.36-24.92c15.14,0,26.36,10.53,26.36,24.92
		c0,14.39-11.22,24.92-26.36,24.92C295.48,497.88,284.33,487.28,284.33,472.96z M325.76,472.96c0-9.15-6.47-15.42-15.07-15.42
		c-8.6,0-15.07,6.26-15.07,15.42c0,9.15,6.47,15.42,15.07,15.42C319.29,488.38,325.76,482.12,325.76,472.96z"/>
	<path class="st0" d="M361.13,492.3l3.78-8.4c4.06,2.96,10.12,5.03,15.9,5.03c6.61,0,9.29-2.2,9.29-5.16
		c0-9.02-28.01-2.82-28.01-20.72c0-8.19,6.61-15,20.3-15c6.06,0,12.25,1.45,16.72,4.27l-3.44,8.47c-4.47-2.55-9.08-3.79-13.35-3.79
		c-6.61,0-9.15,2.48-9.15,5.51c0,8.88,28.01,2.75,28.01,20.44c0,8.05-6.68,14.94-20.44,14.94
		C373.11,497.88,365.4,495.61,361.13,492.3z"/>
	<path class="st0" d="M418.11,457.96H402.7v-9.09h41.98v9.09h-15.41v39.09h-11.15V457.96z"/>
	<path class="st0" d="M446.95,472.96c0-14.32,11.15-24.92,26.36-24.92c15.14,0,26.36,10.53,26.36,24.92
		c0,14.39-11.22,24.92-26.36,24.92C458.09,497.88,446.95,487.28,446.95,472.96z M488.37,472.96c0-9.15-6.47-15.42-15.07-15.42
		c-8.6,0-15.07,6.26-15.07,15.42c0,9.15,6.47,15.42,15.07,15.42C481.9,488.38,488.37,482.12,488.37,472.96z"/>
	<path class="st0" d="M538.75,497.05l-9.29-13.42h-0.55h-9.7v13.42h-11.15v-48.18h20.85c12.87,0,20.92,6.68,20.92,17.48
		c0,7.23-3.65,12.53-9.91,15.21l10.8,15.49H538.75z M528.29,457.96h-9.08v16.79h9.08c6.81,0,10.25-3.17,10.25-8.4
		C538.54,461.06,535.1,457.96,528.29,457.96z"/>
	<path class="st0" d="M595.93,488.11v8.95h-37.3v-48.18h36.4v8.95h-25.32v10.46h22.37v8.67h-22.37v11.15H595.93z"/>
</g>
</svg>
