<?xml version="1.0" encoding="utf-8"?>
<!-- Generator: Adobe Illustrator 28.0.0, SVG Export Plug-In . SVG Version: 6.00 Build 0)  -->
<svg version="1.1" id="Layer_1" xmlns="http://www.w3.org/2000/svg" xmlns:xlink="http://www.w3.org/1999/xlink" x="0px" y="0px"
	 viewBox="0 0 612 792" style="enable-background:new 0 0 612 792;" xml:space="preserve">
<style type="text/css">
	.st0{fill:#FFFFFF;}
</style>
<path class="st0" d="M192.95,112.36h165.75c38.62,0,73.72,15.79,99.15,41.22c25.43,25.43,41.22,60.53,41.22,99.15
	c0,38.62-15.79,73.72-41.22,99.15c-12.36,12.36-27.01,22.44-43.23,29.54l94.19,135.14h-53.87l-86.3-123.82
	c-3.29,0.23-6.6,0.35-9.95,0.35H215.07v123.46h-44.23V370.98c0-16.21,2.78-31.79,7.88-46.3c-62.58-27.21-76.97-65.91-77.01-66.04
	c-2.1-5.38-1.95-11.08,0-16.07c0.05-0.12,14.25-38.31,75.77-65.5c-4.31-13.45-6.64-27.77-6.64-42.61
	C170.83,122.26,180.73,112.36,192.95,112.36L192.95,112.36z M199.81,285.79c3.77-4.92,7.87-9.58,12.24-13.96
	c7.18-7.18,15.14-13.6,23.72-19.1c-8.59-5.5-16.54-11.92-23.72-19.1c-5.33-5.33-10.23-11.08-14.66-17.2
	c-29.16,12.19-43.25,25.8-49.67,34.19C154.32,259.23,169,273.35,199.81,285.79L199.81,285.79z M225.88,178.61
	c0.19,0.33,0.36,0.67,0.53,1.01c4.5,8.39,10.22,16.05,16.91,22.74c17.43,17.43,41.47,28.26,67.88,28.26h141.04
	c-4.19-17.58-13.25-33.35-25.66-45.76c-17.43-17.43-41.46-28.26-67.88-28.26H217.66C219.5,164.33,222.29,171.71,225.88,178.61
	L225.88,178.61z M452.24,274.85H311.2c-26.42,0-50.45,10.82-67.88,28.26c-12.42,12.42-21.48,28.18-25.66,45.76h141.04
	c26.42,0,50.45-10.82,67.88-28.26C438.99,308.19,448.05,292.43,452.24,274.85L452.24,274.85z"/>
</svg>
